<?xml version="1.0" encoding="utf-8"?>
<!-- Generator: Adobe Illustrator 16.0.0, SVG Export Plug-In . SVG Version: 6.00 Build 0)  -->
<!DOCTYPE svg PUBLIC "-//W3C//DTD SVG 1.1//EN" "http://www.w3.org/Graphics/SVG/1.1/DTD/svg11.dtd">
<svg version="1.1" id="Layer_1" xmlns="http://www.w3.org/2000/svg" xmlns:xlink="http://www.w3.org/1999/xlink" x="0px" y="0px"
	 width="150px" height="100px" viewBox="0 0 150 100" style="enable-background:new 0 0 150 100;" xml:space="preserve">
<g>
	<path style="fill:#4C4C4D;" d="M114.8,41.1c0.3-2.2-0.1-4.8-1.1-7.3c-3.1-7.8-10.6-6.5-14.6-5.8c-0.6,0.1-1.4,0.2-1.9,0.3
		c0-0.1-0.1-0.1-0.1-0.2c-1.1-2.1-3.8-7-9.8-7c0,0,0,0-0.1,0c-6.2,0-9.4,3.3-11.6,6.9c-2.7-3.4-6.7-5.2-11.2-4.8
		c-1.3,0.1-2.5,0.4-3.6,0.8c1.2-1.9,1-3.7,0.9-4.5c-0.6-3.1-3.5-5.4-6.6-5.4c-1.3,0-5.3,0.5-6.8,6.8c-2.4,0-4.7-0.4-5.5-0.7
		c-0.5-2.7-2.8-7-6.7-7c-0.9,0-1.8,0.2-2.7,0.7c-3,1.6-4.6,3.6-4.8,5.9c-0.2,2.5,1.5,4.6,2.7,5.7c-1.7,4-4.5,14.9-0.9,21.6
		c1.4,2.6,4.3,5.7,10.6,5.7c0,0,0,0,0,0c0.5,0,1,0,1.6-0.1c0.4,0,0.9-0.1,1.3-0.2c-1.7,5.3-0.3,9.9,3.9,12.9
		c5.2,3.7,14.1,3.8,20.2-1.3c1.6,4,4.5,7.7,11,7.7c0.5,0,1,0,1.6-0.1c0,0,0.1,0,0.1,0c3.2-0.5,8.1-2.7,11.2-5.3
		c2.2,2,6,3.5,10.1,3.8c4.8,0.3,8.6-1,10.9-3.8c4.2-4.4,3.1-15.2-0.6-20.7C113.6,44.9,114.5,43.2,114.8,41.1z M42.3,50
		c-0.5,0-0.9,0.1-1.4,0.1c0,0,0,0,0,0c-3.9,0-6.5-1.3-7.9-4.1c-3.4-6.5,0.3-18.2,1.4-19.8c0.5-0.7,0.3-1.6-0.4-2.1
		c-0.7-0.5-2.6-2.2-2.4-3.9c0.1-1.5,1.8-2.7,3.2-3.5c0.4-0.2,0.8-0.3,1.2-0.3c2,0,3.6,3.1,3.8,4.8c0.3,2.4,4.8,2.9,8.6,2.9
		c0.4,0,0.8,0,1.2,0c0.7,0,1.3-0.6,1.4-1.3c0.6-3.5,2.1-5.5,4.1-5.5c1.7,0,3.4,1.4,3.7,3c0.4,1.8-1.1,3.6-4,4.9
		c-0.5,0.2-0.9,0.8-0.9,1.3c0,0.1-0.2,5.9-1.8,11.8c-1,3.6-2.8,7.8-5.7,10.1c-0.3,0.1-0.6,0.3-0.8,0.6C44.6,49.5,43.5,49.9,42.3,50z
		 M110.7,64.7c0,0-0.1,0.1-0.1,0.1c-1.6,2-4.7,3-8.4,2.8c-4.4-0.3-8-2.1-8.9-3.8c-0.2-0.4-0.7-0.7-1.1-0.7c-0.5,0-0.9,0.1-1.3,0.5
		c-2.3,2.5-7.6,5-10.7,5.5c-5.6,0.4-8.3-1.7-10.2-7.8c-0.2-0.5-0.6-0.9-1.1-1c-0.5-0.1-1.1,0.1-1.4,0.5c-4.9,5.5-13.4,5.8-18,2.6
		c-3.7-2.6-4.3-7.1-1.7-12.2c5.4-3.8,7.6-12.5,8.5-18.5c0-0.1,0.1-0.1,0.1-0.2c1.1-3.3,4.4-5.7,8.3-6.1c4.1-0.4,7.7,1.6,9.7,5.3
		c0.3,0.5,0.8,0.8,1.3,0.8c0,0,0,0,0,0c0.6,0,1.1-0.3,1.3-0.8c2.1-3.9,4.4-7.4,10.2-7.5c0,0,0,0,0.1,0c4.2,0,6.1,3.5,7.2,5.4
		c0.5,0.9,0.9,1.6,1.7,1.7c0.9,0.2,1.9,0,3.4-0.3c4.8-0.8,9.3-1.1,11.3,4c0.8,1.9,1.2,4,0.9,5.7c-0.3,1.8-1.1,3-2.5,3.6
		c-0.5,0.2-0.8,0.6-0.9,1.1c-0.1,0.5,0.1,1,0.4,1.3C113.1,51,113.7,61.7,110.7,64.7z"/>
	<path style="fill:#4C4C4D;" d="M124.5,26.2c-0.2-0.8-1-1.3-1.8-1.1c-2.2,0.5-4.6,1.6-6.6,3c-0.7,0.5-0.9,1.4-0.4,2.1
		c0.3,0.4,0.8,0.7,1.2,0.7c0.3,0,0.6-0.1,0.8-0.3c1.8-1.2,3.9-2.1,5.7-2.6C124.2,27.9,124.7,27,124.5,26.2z"/>
	<path style="fill:#4C4C4D;" d="M47.1,68.1c-0.8-0.1-1.5,0.6-1.6,1.4c-0.3,4.1-0.6,8.7-3.8,11.6c-0.6,0.6-0.6,1.5-0.1,2.1
		c0.3,0.3,0.7,0.5,1.1,0.5c0.4,0,0.7-0.1,1-0.4c4-3.8,4.4-9.2,4.7-13.6C48.5,68.9,47.9,68.2,47.1,68.1z"/>
	<path style="fill:#4C4C4D;" d="M66.3,70.6c-0.8,0.1-1.4,0.8-1.3,1.7c0.6,5.2,0.6,10.5,0.6,15.3c0,0.8,0.7,1.5,1.5,1.5
		s1.5-0.7,1.5-1.5c0-4.8,0-10.2-0.6-15.6C67.9,71.2,67.1,70.6,66.3,70.6z"/>
	<path style="fill:#4C4C4D;" d="M89.5,73.3c-0.8,0-1.5,0.7-1.5,1.5v14.7c0,0.8,0.7,1.5,1.5,1.5s1.5-0.7,1.5-1.5V74.8
		C91,74,90.3,73.3,89.5,73.3z"/>
	<path style="fill:#4C4C4D;" d="M113.1,82.2c-1.5-2.8-3.2-5.7-3.2-8.8c0-0.8-0.7-1.5-1.5-1.5s-1.5,0.7-1.5,1.5
		c0,3.9,1.9,7.3,3.5,10.2c0.2,0.4,0.4,0.7,0.6,1.1c0.3,0.5,0.8,0.8,1.3,0.8c0.2,0,0.5-0.1,0.7-0.2c0.7-0.4,1-1.3,0.6-2
		C113.5,83,113.3,82.6,113.1,82.2z"/>
</g>
</svg>
