<?xml version="1.0" encoding="utf-8"?>
<svg version="1.1" xmlns="http://www.w3.org/2000/svg" xmlns:xlink="http://www.w3.org/1999/xlink" x="0px" y="0px"
	 viewBox="0 -25 150 150" xml:space="preserve">
<polygon style="fill:#ffffff;" points="42,124 0.9,72.4 15.6,8.1 75,-20.5 134.4,8.1 149.1,72.4 108,124 "/>
<path style="fill:#4d5263;" d="M75,5C47.9,5,26,26.9,26,54c0,27.1,21.9,49,49,49c27.1,0,49-21.9,49-49C124,26.9,102.1,5,75,5z
	 M104.1,83.1c-3.8,3.8-8.2,6.8-13.1,8.8c-1.2,0.5-2.5,1-3.8,1.4V86c0-3.9-1.3-6.7-4-8.5c1.7-0.2,3.2-0.4,4.6-0.7
	c1.4-0.3,2.9-0.7,4.4-1.2s2.9-1.2,4.2-1.9c1.2-0.8,2.4-1.7,3.5-2.9c1.1-1.2,2.1-2.6,2.8-4.1c0.8-1.5,1.4-3.3,1.8-5.5
	c0.4-2.1,0.7-4.5,0.7-7c0-4.9-1.6-9.2-4.8-12.6c1.5-3.8,1.3-8-0.5-12.5l-1.2-0.1c-0.8-0.1-2.3,0.3-4.5,1.1c-2.2,0.8-4.6,2.1-7.2,3.9
	c-3.8-1.1-7.7-1.6-11.8-1.6c-4.1,0-8,0.5-11.8,1.6c-1.7-1.1-3.3-2.1-4.8-2.8c-1.5-0.8-2.7-1.3-3.6-1.5c-0.9-0.3-1.8-0.4-2.5-0.5
	c-0.8-0.1-1.3-0.1-1.5,0c-0.2,0-0.4,0.1-0.5,0.1c-1.8,4.5-1.9,8.7-0.5,12.5c-3.2,3.5-4.8,7.7-4.8,12.6c0,2.6,0.2,4.9,0.7,7
	c0.4,2.1,1.1,3.9,1.8,5.5c0.8,1.5,1.7,2.9,2.8,4.1c1.1,1.2,2.3,2.2,3.5,2.9s2.6,1.4,4.2,1.9c1.5,0.5,3,1,4.4,1.2s2.9,0.5,4.6,0.7
	c-2.6,1.8-3.9,4.6-3.9,8.5v7.5c-1.4-0.4-2.9-0.9-4.3-1.5c-4.9-2.1-9.3-5-13.1-8.8c-3.8-3.8-6.8-8.2-8.8-13.1
	c-2.1-5.1-3.2-10.5-3.2-16c0-5.6,1.1-10.9,3.2-16c2.1-4.9,5-9.3,8.8-13.1c3.8-3.8,8.2-6.8,13.1-8.8c5.1-2.1,10.5-3.2,16-3.2
	c5.6,0,10.9,1.1,16,3.2c4.9,2.1,9.3,5,13.1,8.8c3.8,3.8,6.8,8.2,8.8,13.1c2.1,5.1,3.2,10.5,3.2,16c0,5.6-1.1,10.9-3.2,16
	C110.8,74.9,107.9,79.3,104.1,83.1L104.1,83.1z"/>
</svg>
