<?xml version="1.0" encoding="utf-8"?>
<svg version="1.1" xmlns="http://www.w3.org/2000/svg" xmlns:xlink="http://www.w3.org/1999/xlink" x="0px" y="0px"
	 viewBox="0 -25 150 150" xml:space="preserve">
<polygon style="fill:#c69c6d;" points="42,124 0.9,72.4 15.6,8.1 75,-20.5 134.4,8.1 149.1,72.4 108,124 "/>
<path style="fill:#ffffff" d="M103.3,15.5H46.7c-4.4,0-8,3.6-8,8V80c0,4.4,3.6,8,8,8h56.6c4.4,0,8-3.6,8-8V23.4
	C111.3,19,107.7,15.5,103.3,15.5z M75,37.8c7.7,0,13.9,6.2,13.9,13.9c0,7.7-6.2,13.9-13.9,13.9c-7.7,0-13.9-6.2-13.9-13.9
	C61.1,44,67.3,37.8,75,37.8z M102.8,76.6c0,1.6-1.3,2.9-2.9,2.9H50.1c-1.6,0-2.9-1.3-2.9-2.9V46.2h6.3c-0.4,1.7-0.7,3.6-0.7,5.4
	c0,12.3,10,22.3,22.3,22.3c12.3,0,22.3-10,22.3-22.3c0-1.9-0.2-3.7-0.7-5.4h6.1V76.6L102.8,76.6z M103,34.8c0,1.6-1.3,2.9-2.9,2.9
	h-8.2c-1.6,0-2.9-1.3-2.9-2.9v-8.2c0-1.6,1.3-2.9,2.9-2.9h8.2c1.6,0,2.9,1.3,2.9,2.9V34.8z"/>
</svg>
