<?xml version="1.0" encoding="utf-8"?>
<svg version="1.1" xmlns="http://www.w3.org/2000/svg" xmlns:xlink="http://www.w3.org/1999/xlink" x="0px" y="0px"
	 viewBox="0 -25 150 150" xml:space="preserve">
<polygon style="fill:#007bb6;" points="42,124 0.9,72.4 15.6,8.1 75,-20.5 134.4,8.1 149.1,72.4 108,124 "/>
<path style="fill:#ffffff;" d="M59.7,81.6H47.4V38.8h12.2V81.6z M53.6,32.6c-3.4,0-6.1-2.7-6.1-6.1s2.7-6.1,6.1-6.1s6.1,2.7,6.1,6.1
	S56.9,32.6,53.6,32.6z M102.6,81.6H90.3V57.1c0-3.4-2.7-6.1-6.1-6.1s-6.1,2.7-6.1,6.1v24.5H65.8V38.8h12.2v7.6
	c2.5-3.5,6.4-7.6,10.7-7.6c7.6,0,13.8,6.9,13.8,15.3L102.6,81.6L102.6,81.6z"/>
</svg>
