<?xml version="1.0" encoding="utf-8"?>
<!-- Generator: Adobe Illustrator 16.0.0, SVG Export Plug-In . SVG Version: 6.00 Build 0)  -->
<!DOCTYPE svg PUBLIC "-//W3C//DTD SVG 1.1//EN" "http://www.w3.org/Graphics/SVG/1.1/DTD/svg11.dtd">
<svg version="1.1" id="linkedin" xmlns="http://www.w3.org/2000/svg" xmlns:xlink="http://www.w3.org/1999/xlink" x="0px" y="0px"
	 width="150px" height="100px" viewBox="0 0 150 100" enable-background="new 0 0 150 100" xml:space="preserve">
<path fill="#4D5263" d="M62.75,80.625H50.5V37.75h12.25V80.625z M56.625,31.625c-3.383,0-6.125-2.742-6.125-6.125
	s2.742-6.125,6.125-6.125s6.125,2.742,6.125,6.125S60.008,31.625,56.625,31.625z M105.625,80.625h-12.25v-24.5
	c0-3.383-2.742-6.125-6.125-6.125s-6.125,2.742-6.125,6.125v24.5h-12.25V37.75h12.25v7.606c2.525-3.47,6.389-7.606,10.719-7.606
	c7.612,0,13.782,6.856,13.782,15.312L105.625,80.625L105.625,80.625z"/>
</svg>
