<?xml version="1.0" encoding="utf-8"?>
<!-- Generator: Adobe Illustrator 16.0.0, SVG Export Plug-In . SVG Version: 6.00 Build 0)  -->
<!DOCTYPE svg PUBLIC "-//W3C//DTD SVG 1.1//EN" "http://www.w3.org/Graphics/SVG/1.1/DTD/svg11.dtd">
<svg version="1.1" id="tumblr" xmlns="http://www.w3.org/2000/svg" xmlns:xlink="http://www.w3.org/1999/xlink" x="0px" y="0px"
	 width="150px" height="100px" viewBox="0 0 150 100" enable-background="new 0 0 150 100" xml:space="preserve">
<path fill="#4D5263" d="M96.027,79.925c-2.885,1.358-5.506,2.315-7.848,2.865c-2.344,0.545-4.877,0.819-7.599,0.819
	c-3.093,0-4.917-0.389-7.291-1.166c-2.375-0.784-4.402-1.902-6.077-3.338c-1.681-1.446-2.841-2.985-3.49-4.611
	c-0.65-1.628-0.972-3.99-0.972-7.082V43.698h-9.187v-9.576c2.655-0.861,5.736-2.099,7.626-3.708
	c1.899-1.615,3.418-3.547,4.564-5.807c1.149-2.255,1.938-5.132,2.369-8.62h9.618v15.642h15.635V43.7H77.738v17.34
	c0,3.924-0.051,6.185,0.367,7.297c0.412,1.106,1.446,2.255,2.574,2.919c1.497,0.898,3.207,1.346,5.131,1.346
	c3.426,0,6.832-1.111,10.217-3.338V79.93V79.925L96.027,79.925z"/>
</svg>
