<?xml version="1.0" encoding="utf-8"?>
<svg version="1.1" xmlns="http://www.w3.org/2000/svg" xmlns:xlink="http://www.w3.org/1999/xlink" x="0px" y="0px"
	 viewBox="0 -25 150 150" xml:space="preserve">
<polygon style="fill:#33b9b5;" points="42,124 0.9,72.4 15.6,8.1 75,-20.5 134.4,8.1 149.1,72.4 108,124 "/>
<path style="fill:#ffffff;" d="M111.4,28.4c-2.7,1.2-5.6,2-8.6,2.4c3.1-1.9,5.5-4.8,6.6-8.3c-2.9,1.7-6.1,3-9.5,3.6
	c-2.7-2.9-6.6-4.7-10.9-4.7c-8.3,0-15,6.7-15,15c0,1.2,0.1,2.3,0.4,3.4C62,39.2,51,33.2,43.6,24.1c-1.3,2.2-2,4.8-2,7.6
	c0,5.2,2.6,9.8,6.7,12.5c-2.5-0.1-4.8-0.8-6.8-1.9c0,0.1,0,0.1,0,0.2c0,7.3,5.2,13.4,12,14.7c-1.3,0.3-2.6,0.5-3.9,0.5
	c-1,0-1.9-0.1-2.8-0.3c1.9,6,7.4,10.3,14,10.4c-5.1,4-11.6,6.4-18.6,6.4c-1.2,0-2.4-0.1-3.6-0.2c6.6,4.3,14.5,6.8,22.9,6.8
	C89,80.9,104,58,104,38.1c0-0.7,0-1.3,0-1.9C106.9,34.1,109.4,31.4,111.4,28.4z"/>
</svg>
